<svg id="visual" viewBox="0 0 900 600" width="900" height="600" xmlns="http://www.w3.org/2000/svg" xmlns:xlink="http://www.w3.org/1999/xlink" version="1.1"><rect x="0" y="0" width="900" height="600" fill="#001220"></rect><defs><linearGradient id="grad1_0" x1="33.3%" y1="100%" x2="100%" y2="0%"><stop offset="20%" stop-color="#3c4dfa" stop-opacity="1"></stop><stop offset="80%" stop-color="#3c4dfa" stop-opacity="1"></stop></linearGradient></defs><defs><linearGradient id="grad1_1" x1="33.3%" y1="100%" x2="100%" y2="0%"><stop offset="20%" stop-color="#3c4dfa" stop-opacity="1"></stop><stop offset="80%" stop-color="#004ad1" stop-opacity="1"></stop></linearGradient></defs><defs><linearGradient id="grad1_2" x1="33.3%" y1="100%" x2="100%" y2="0%"><stop offset="20%" stop-color="#0040a5" stop-opacity="1"></stop><stop offset="80%" stop-color="#004ad1" stop-opacity="1"></stop></linearGradient></defs><defs><linearGradient id="grad1_3" x1="33.3%" y1="100%" x2="100%" y2="0%"><stop offset="20%" stop-color="#0040a5" stop-opacity="1"></stop><stop offset="80%" stop-color="#003277" stop-opacity="1"></stop></linearGradient></defs><defs><linearGradient id="grad1_4" x1="33.3%" y1="100%" x2="100%" y2="0%"><stop offset="20%" stop-color="#002349" stop-opacity="1"></stop><stop offset="80%" stop-color="#003277" stop-opacity="1"></stop></linearGradient></defs><defs><linearGradient id="grad1_5" x1="33.3%" y1="100%" x2="100%" y2="0%"><stop offset="20%" stop-color="#002349" stop-opacity="1"></stop><stop offset="80%" stop-color="#001220" stop-opacity="1"></stop></linearGradient></defs><defs><linearGradient id="grad2_0" x1="0%" y1="100%" x2="66.7%" y2="0%"><stop offset="20%" stop-color="#3c4dfa" stop-opacity="1"></stop><stop offset="80%" stop-color="#3c4dfa" stop-opacity="1"></stop></linearGradient></defs><defs><linearGradient id="grad2_1" x1="0%" y1="100%" x2="66.7%" y2="0%"><stop offset="20%" stop-color="#004ad1" stop-opacity="1"></stop><stop offset="80%" stop-color="#3c4dfa" stop-opacity="1"></stop></linearGradient></defs><defs><linearGradient id="grad2_2" x1="0%" y1="100%" x2="66.7%" y2="0%"><stop offset="20%" stop-color="#004ad1" stop-opacity="1"></stop><stop offset="80%" stop-color="#0040a5" stop-opacity="1"></stop></linearGradient></defs><defs><linearGradient id="grad2_3" x1="0%" y1="100%" x2="66.7%" y2="0%"><stop offset="20%" stop-color="#003277" stop-opacity="1"></stop><stop offset="80%" stop-color="#0040a5" stop-opacity="1"></stop></linearGradient></defs><defs><linearGradient id="grad2_4" x1="0%" y1="100%" x2="66.7%" y2="0%"><stop offset="20%" stop-color="#003277" stop-opacity="1"></stop><stop offset="80%" stop-color="#002349" stop-opacity="1"></stop></linearGradient></defs><defs><linearGradient id="grad2_5" x1="0%" y1="100%" x2="66.7%" y2="0%"><stop offset="20%" stop-color="#001220" stop-opacity="1"></stop><stop offset="80%" stop-color="#002349" stop-opacity="1"></stop></linearGradient></defs><g transform="translate(900, 600)"><path d="M-486.7 0C-488.1 -25.3 -489.5 -50.6 -464.2 -66.7C-439 -82.9 -387.1 -89.8 -383.8 -112.7C-380.5 -135.6 -425.6 -174.5 -422.1 -192.8C-418.5 -211 -366.2 -208.5 -345.8 -222.2C-325.3 -235.9 -336.6 -265.8 -335.6 -290.8C-334.5 -315.7 -321 -335.6 -303.9 -350.7C-286.7 -365.7 -265.8 -375.9 -241.7 -376C-217.5 -376.1 -190.1 -366.2 -171.6 -375.7C-153.1 -385.2 -143.6 -414.2 -128.2 -436.6C-112.8 -458.9 -91.6 -474.5 -69.3 -481.8C-46.9 -489 -23.5 -487.9 0 -486.7L0 0Z" fill="#001b34"></path><path d="M-405.6 0C-406.8 -21.1 -407.9 -42.2 -386.9 -55.6C-365.8 -69.1 -322.6 -74.8 -319.8 -93.9C-317 -113 -354.7 -145.4 -351.7 -160.6C-348.8 -175.8 -305.2 -173.7 -288.1 -185.2C-271.1 -196.6 -280.5 -221.5 -279.6 -242.3C-278.7 -263.1 -267.5 -279.7 -253.2 -292.2C-238.9 -304.8 -221.5 -313.3 -201.4 -313.4C-181.3 -313.5 -158.4 -305.1 -143 -313.1C-127.6 -321 -119.6 -345.2 -106.8 -363.8C-94 -382.4 -76.3 -395.5 -57.7 -401.5C-39.1 -407.5 -19.6 -406.6 0 -405.6L0 0Z" fill="#002b60"></path><path d="M-324.5 0C-325.4 -16.9 -326.3 -33.8 -309.5 -44.5C-292.7 -55.2 -258.1 -59.8 -255.9 -75.1C-253.6 -90.4 -283.8 -116.4 -281.4 -128.5C-279 -140.6 -244.2 -139 -230.5 -148.1C-216.9 -157.3 -224.4 -177.2 -223.7 -193.8C-223 -210.5 -214 -223.7 -202.6 -233.8C-191.1 -243.8 -177.2 -250.6 -161.1 -250.7C-145 -250.8 -126.7 -244.1 -114.4 -250.5C-102.1 -256.8 -95.7 -276.2 -85.5 -291C-75.2 -305.9 -61.1 -316.4 -46.2 -321.2C-31.3 -326 -15.6 -325.3 0 -324.5L0 0Z" fill="#003a8e"></path><path d="M-243.4 0C-244.1 -12.7 -244.7 -25.3 -232.1 -33.4C-219.5 -41.4 -193.6 -44.9 -191.9 -56.3C-190.2 -67.8 -212.8 -87.3 -211 -96.4C-209.3 -105.5 -183.1 -104.2 -172.9 -111.1C-162.6 -118 -168.3 -132.9 -167.8 -145.4C-167.2 -157.8 -160.5 -167.8 -151.9 -175.3C-143.3 -182.9 -132.9 -188 -120.8 -188C-108.8 -188.1 -95 -183.1 -85.8 -187.8C-76.5 -192.6 -71.8 -207.1 -64.1 -218.3C-56.4 -229.5 -45.8 -237.3 -34.6 -240.9C-23.5 -244.5 -11.7 -243.9 0 -243.4L0 0Z" fill="#0045bb"></path><path d="M-162.2 0C-162.7 -8.4 -163.2 -16.9 -154.7 -22.2C-146.3 -27.6 -129 -29.9 -127.9 -37.6C-126.8 -45.2 -141.9 -58.2 -140.7 -64.3C-139.5 -70.3 -122.1 -69.5 -115.3 -74.1C-108.4 -78.6 -112.2 -88.6 -111.9 -96.9C-111.5 -105.2 -107 -111.9 -101.3 -116.9C-95.6 -121.9 -88.6 -125.3 -80.6 -125.3C-72.5 -125.4 -63.4 -122.1 -57.2 -125.2C-51 -128.4 -47.9 -138.1 -42.7 -145.5C-37.6 -153 -30.5 -158.2 -23.1 -160.6C-15.6 -163 -7.8 -162.6 0 -162.2L0 0Z" fill="#004ce6"></path><path d="M-81.1 0C-81.4 -4.2 -81.6 -8.4 -77.4 -11.1C-73.2 -13.8 -64.5 -15 -64 -18.8C-63.4 -22.6 -70.9 -29.1 -70.3 -32.1C-69.8 -35.2 -61 -34.7 -57.6 -37C-54.2 -39.3 -56.1 -44.3 -55.9 -48.5C-55.7 -52.6 -53.5 -55.9 -50.6 -58.4C-47.8 -61 -44.3 -62.7 -40.3 -62.7C-36.3 -62.7 -31.7 -61 -28.6 -62.6C-25.5 -64.2 -23.9 -69 -21.4 -72.8C-18.8 -76.5 -15.3 -79.1 -11.5 -80.3C-7.8 -81.5 -3.9 -81.3 0 -81.1L0 0Z" fill="#3c4dfa"></path></g><g transform="translate(0, 0)"><path d="M486.7 0C453.7 19.9 420.7 39.8 402.9 57.9C385.1 76 382.5 92.2 386.7 113.5C390.9 134.8 401.8 161.2 396.6 181.1C391.4 201.1 370.1 214.6 350 224.9C329.8 235.2 310.9 242.2 309.1 267.8C307.3 293.5 322.6 337.6 318.8 367.9C314.9 398.1 292 414.3 261.1 406.3C230.3 398.3 191.5 366.1 169.5 371.1C147.4 376.1 142 418.3 126.2 429.9C110.4 441.4 84.1 422.2 61.3 426.6C38.6 431 19.3 458.9 0 486.7L0 0Z" fill="#001b34"></path><path d="M405.6 0C378.1 16.6 350.6 33.2 335.7 48.3C320.9 63.3 318.7 76.9 322.2 94.6C325.7 112.4 334.8 134.3 330.5 150.9C326.2 167.6 308.4 178.8 291.6 187.4C274.9 196 259.1 201.9 257.6 223.2C256.1 244.5 268.8 281.4 265.6 306.6C262.4 331.7 243.3 345.3 217.6 338.6C191.9 331.9 159.6 305.1 141.2 309.3C122.9 313.4 118.4 348.6 105.2 358.2C92 367.8 70.1 351.9 51.1 355.5C32.1 359.2 16.1 382.4 0 405.6L0 0Z" fill="#002b60"></path><path d="M324.5 0C302.5 13.3 280.4 26.6 268.6 38.6C256.7 50.7 255 61.5 257.8 75.7C260.6 89.9 267.9 107.4 264.4 120.7C260.9 134 246.7 143.1 233.3 149.9C219.9 156.8 207.3 161.5 206.1 178.6C204.9 195.6 215.1 225.1 212.5 245.2C209.9 265.4 194.6 276.2 174.1 270.9C153.5 265.6 127.7 244.1 113 247.4C98.3 250.8 94.7 278.9 84.1 286.6C73.6 294.3 56.1 281.5 40.9 284.4C25.7 287.3 12.9 305.9 0 324.5L0 0Z" fill="#003a8e"></path><path d="M243.4 0C226.9 10 210.3 19.9 201.4 29C192.5 38 191.2 46.1 193.3 56.8C195.4 67.4 200.9 80.6 198.3 90.6C195.7 100.5 185 107.3 175 112.5C164.9 117.6 155.5 121.1 154.6 133.9C153.6 146.7 161.3 168.8 159.4 183.9C157.5 199 146 207.2 130.6 203.2C115.1 199.2 95.8 183.1 84.7 185.6C73.7 188.1 71 209.2 63.1 214.9C55.2 220.7 42.1 211.1 30.7 213.3C19.3 215.5 9.6 229.4 0 243.4L0 0Z" fill="#0045bb"></path><path d="M162.2 0C151.2 6.6 140.2 13.3 134.3 19.3C128.4 25.3 127.5 30.7 128.9 37.8C130.3 44.9 133.9 53.7 132.2 60.4C130.5 67 123.4 71.5 116.7 75C109.9 78.4 103.6 80.7 103 89.3C102.4 97.8 107.5 112.5 106.3 122.6C105 132.7 97.3 138.1 87 135.4C76.8 132.8 63.8 122 56.5 123.7C49.1 125.4 47.3 139.4 42.1 143.3C36.8 147.1 28 140.7 20.4 142.2C12.9 143.7 6.4 153 0 162.2L0 0Z" fill="#004ce6"></path><path d="M81.1 0C75.6 3.3 70.1 6.6 67.1 9.7C64.2 12.7 63.7 15.4 64.4 18.9C65.1 22.5 67 26.9 66.1 30.2C65.2 33.5 61.7 35.8 58.3 37.5C55 39.2 51.8 40.4 51.5 44.6C51.2 48.9 53.8 56.3 53.1 61.3C52.5 66.3 48.7 69.1 43.5 67.7C38.4 66.4 31.9 61 28.2 61.9C24.6 62.7 23.7 69.7 21 71.6C18.4 73.6 14 70.4 10.2 71.1C6.4 71.8 3.2 76.5 0 81.1L0 0Z" fill="#3c4dfa"></path></g></svg>