<svg id="visual" viewBox="0 0 900 600" width="900" height="600" xmlns="http://www.w3.org/2000/svg" xmlns:xlink="http://www.w3.org/1999/xlink" version="1.1"><path d="M0 49L13.7 53C27.3 57 54.7 65 82 67C109.3 69 136.7 65 163.8 64C191 63 218 65 245.2 64C272.3 63 299.7 59 327 62C354.3 65 381.7 75 409 72C436.3 69 463.7 53 491 55C518.3 57 545.7 77 573 79C600.3 81 627.7 65 654.8 60C682 55 709 61 736.2 67C763.3 73 790.7 79 818 83C845.3 87 872.7 89 886.3 90L900 91L900 0L886.3 0C872.7 0 845.3 0 818 0C790.7 0 763.3 0 736.2 0C709 0 682 0 654.8 0C627.7 0 600.3 0 573 0C545.7 0 518.3 0 491 0C463.7 0 436.3 0 409 0C381.7 0 354.3 0 327 0C299.7 0 272.3 0 245.2 0C218 0 191 0 163.8 0C136.7 0 109.3 0 82 0C54.7 0 27.3 0 13.7 0L0 0Z" fill="#0667f7"></path><path d="M0 187L13.7 198C27.3 209 54.7 231 82 236C109.3 241 136.7 229 163.8 232C191 235 218 253 245.2 269C272.3 285 299.7 299 327 312C354.3 325 381.7 337 409 316C436.3 295 463.7 241 491 225C518.3 209 545.7 231 573 224C600.3 217 627.7 181 654.8 183C682 185 709 225 736.2 248C763.3 271 790.7 277 818 287C845.3 297 872.7 311 886.3 318L900 325L900 89L886.3 88C872.7 87 845.3 85 818 81C790.7 77 763.3 71 736.2 65C709 59 682 53 654.8 58C627.7 63 600.3 79 573 77C545.7 75 518.3 55 491 53C463.7 51 436.3 67 409 70C381.7 73 354.3 63 327 60C299.7 57 272.3 61 245.2 62C218 63 191 61 163.8 62C136.7 63 109.3 67 82 65C54.7 63 27.3 55 13.7 51L0 47Z" fill="#314fd2"></path><path d="M0 361L13.7 363C27.3 365 54.7 369 82 382C109.3 395 136.7 417 163.8 421C191 425 218 411 245.2 407C272.3 403 299.7 409 327 415C354.3 421 381.7 427 409 429C436.3 431 463.7 429 491 431C518.3 433 545.7 439 573 423C600.3 407 627.7 369 654.8 366C682 363 709 395 736.2 399C763.3 403 790.7 379 818 375C845.3 371 872.7 387 886.3 395L900 403L900 323L886.3 316C872.7 309 845.3 295 818 285C790.7 275 763.3 269 736.2 246C709 223 682 183 654.8 181C627.7 179 600.3 215 573 222C545.7 229 518.3 207 491 223C463.7 239 436.3 293 409 314C381.7 335 354.3 323 327 310C299.7 297 272.3 283 245.2 267C218 251 191 233 163.8 230C136.7 227 109.3 239 82 234C54.7 229 27.3 207 13.7 196L0 185Z" fill="#3937ae"></path><path d="M0 505L13.7 508C27.3 511 54.7 517 82 514C109.3 511 136.7 499 163.8 493C191 487 218 487 245.2 498C272.3 509 299.7 531 327 534C354.3 537 381.7 521 409 514C436.3 507 463.7 509 491 517C518.3 525 545.7 539 573 535C600.3 531 627.7 509 654.8 503C682 497 709 507 736.2 508C763.3 509 790.7 501 818 505C845.3 509 872.7 525 886.3 533L900 541L900 401L886.3 393C872.7 385 845.3 369 818 373C790.7 377 763.3 401 736.2 397C709 393 682 361 654.8 364C627.7 367 600.3 405 573 421C545.7 437 518.3 431 491 429C463.7 427 436.3 429 409 427C381.7 425 354.3 419 327 413C299.7 407 272.3 401 245.2 405C218 409 191 423 163.8 419C136.7 415 109.3 393 82 380C54.7 367 27.3 363 13.7 361L0 359Z" fill="#38208b"></path><path d="M0 601L13.7 601C27.3 601 54.7 601 82 601C109.3 601 136.7 601 163.8 601C191 601 218 601 245.2 601C272.3 601 299.7 601 327 601C354.3 601 381.7 601 409 601C436.3 601 463.7 601 491 601C518.3 601 545.7 601 573 601C600.3 601 627.7 601 654.8 601C682 601 709 601 736.2 601C763.3 601 790.7 601 818 601C845.3 601 872.7 601 886.3 601L900 601L900 539L886.3 531C872.7 523 845.3 507 818 503C790.7 499 763.3 507 736.2 506C709 505 682 495 654.8 501C627.7 507 600.3 529 573 533C545.7 537 518.3 523 491 515C463.7 507 436.3 505 409 512C381.7 519 354.3 535 327 532C299.7 529 272.3 507 245.2 496C218 485 191 485 163.8 491C136.7 497 109.3 509 82 512C54.7 515 27.3 509 13.7 506L0 503Z" fill="#31066a"></path></svg>