<svg id="visual" viewBox="0 0 900 600" width="900" height="600" xmlns="http://www.w3.org/2000/svg" xmlns:xlink="http://www.w3.org/1999/xlink" version="1.1"><path d="M0 49L15 51C30 53 60 57 90 58C120 59 150 57 180 54C210 51 240 47 270 45C300 43 330 43 360 45C390 47 420 51 450 51C480 51 510 47 540 48C570 49 600 55 630 55C660 55 690 49 720 46C750 43 780 43 810 44C840 45 870 47 885 48L900 49L900 0L885 0C870 0 840 0 810 0C780 0 750 0 720 0C690 0 660 0 630 0C600 0 570 0 540 0C510 0 480 0 450 0C420 0 390 0 360 0C330 0 300 0 270 0C240 0 210 0 180 0C150 0 120 0 90 0C60 0 30 0 15 0L0 0Z" fill="#7c0d87"></path><path d="M0 97L15 99C30 101 60 105 90 108C120 111 150 113 180 116C210 119 240 123 270 129C300 135 330 143 360 145C390 147 420 143 450 137C480 131 510 123 540 129C570 135 600 155 630 160C660 165 690 155 720 153C750 151 780 157 810 152C840 147 870 131 885 123L900 115L900 47L885 46C870 45 840 43 810 42C780 41 750 41 720 44C690 47 660 53 630 53C600 53 570 47 540 46C510 45 480 49 450 49C420 49 390 45 360 43C330 41 300 41 270 43C240 45 210 49 180 52C150 55 120 57 90 56C60 55 30 51 15 49L0 47Z" fill="#7b209a"></path><path d="M0 157L15 155C30 153 60 149 90 153C120 157 150 169 180 178C210 187 240 193 270 195C300 197 330 195 360 196C390 197 420 201 450 200C480 199 510 193 540 200C570 207 600 227 630 233C660 239 690 231 720 228C750 225 780 227 810 219C840 211 870 193 885 184L900 175L900 113L885 121C870 129 840 145 810 150C780 155 750 149 720 151C690 153 660 163 630 158C600 153 570 133 540 127C510 121 480 129 450 135C420 141 390 145 360 143C330 141 300 133 270 127C240 121 210 117 180 114C150 111 120 109 90 106C60 103 30 99 15 97L0 95Z" fill="#772fae"></path><path d="M0 259L15 274C30 289 60 319 90 326C120 333 150 317 180 310C210 303 240 305 270 306C300 307 330 307 360 315C390 323 420 339 450 345C480 351 510 347 540 350C570 353 600 363 630 372C660 381 690 389 720 384C750 379 780 361 810 341C840 321 870 299 885 288L900 277L900 173L885 182C870 191 840 209 810 217C780 225 750 223 720 226C690 229 660 237 630 231C600 225 570 205 540 198C510 191 480 197 450 198C420 199 390 195 360 194C330 193 300 195 270 193C240 191 210 185 180 176C150 167 120 155 90 151C60 147 30 151 15 153L0 155Z" fill="#6f3dc2"></path><path d="M0 463L15 461C30 459 60 455 90 458C120 461 150 471 180 478C210 485 240 489 270 491C300 493 330 493 360 494C390 495 420 497 450 497C480 497 510 495 540 493C570 491 600 489 630 486C660 483 690 479 720 479C750 479 780 483 810 486C840 489 870 491 885 492L900 493L900 275L885 286C870 297 840 319 810 339C780 359 750 377 720 382C690 387 660 379 630 370C600 361 570 351 540 348C510 345 480 349 450 343C420 337 390 321 360 313C330 305 300 305 270 304C240 303 210 301 180 308C150 315 120 331 90 324C60 317 30 287 15 272L0 257Z" fill="#614bd6"></path><path d="M0 517L15 517C30 517 60 517 90 520C120 523 150 529 180 536C210 543 240 551 270 554C300 557 330 555 360 552C390 549 420 545 450 545C480 545 510 549 540 547C570 545 600 537 630 529C660 521 690 513 720 516C750 519 780 533 810 542C840 551 870 555 885 557L900 559L900 491L885 490C870 489 840 487 810 484C780 481 750 477 720 477C690 477 660 481 630 484C600 487 570 489 540 491C510 493 480 495 450 495C420 495 390 493 360 492C330 491 300 491 270 489C240 487 210 483 180 476C150 469 120 459 90 456C60 453 30 457 15 459L0 461Z" fill="#4958eb"></path><path d="M0 601L15 601C30 601 60 601 90 601C120 601 150 601 180 601C210 601 240 601 270 601C300 601 330 601 360 601C390 601 420 601 450 601C480 601 510 601 540 601C570 601 600 601 630 601C660 601 690 601 720 601C750 601 780 601 810 601C840 601 870 601 885 601L900 601L900 557L885 555C870 553 840 549 810 540C780 531 750 517 720 514C690 511 660 519 630 527C600 535 570 543 540 545C510 547 480 543 450 543C420 543 390 547 360 550C330 553 300 555 270 552C240 549 210 541 180 534C150 527 120 521 90 518C60 515 30 515 15 515L0 515Z" fill="#0066ff"></path></svg>