<svg id="visual" viewBox="0 0 900 600" width="900" height="600" xmlns="http://www.w3.org/2000/svg" xmlns:xlink="http://www.w3.org/1999/xlink" version="1.1"><rect x="0" y="0" width="900" height="600" fill="#001220"></rect><path d="M0 353L13.7 343C27.3 333 54.7 313 82 291.7C109.3 270.3 136.7 247.7 163.8 236.3C191 225 218 225 245.2 239.7C272.3 254.3 299.7 283.7 327 283.8C354.3 284 381.7 255 409 255.2C436.3 255.3 463.7 284.7 491 293.5C518.3 302.3 545.7 290.7 573 278.5C600.3 266.3 627.7 253.7 654.8 251.8C682 250 709 259 736.2 272.7C763.3 286.3 790.7 304.7 818 312.3C845.3 320 872.7 317 886.3 315.5L900 314L900 601L886.3 601C872.7 601 845.3 601 818 601C790.7 601 763.3 601 736.2 601C709 601 682 601 654.8 601C627.7 601 600.3 601 573 601C545.7 601 518.3 601 491 601C463.7 601 436.3 601 409 601C381.7 601 354.3 601 327 601C299.7 601 272.3 601 245.2 601C218 601 191 601 163.8 601C136.7 601 109.3 601 82 601C54.7 601 27.3 601 13.7 601L0 601Z" fill="#6976fa"></path><path d="M0 312L13.7 316C27.3 320 54.7 328 82 343.8C109.3 359.7 136.7 383.3 163.8 384.3C191 385.3 218 363.7 245.2 364.7C272.3 365.7 299.7 389.3 327 391.7C354.3 394 381.7 375 409 365C436.3 355 463.7 354 491 357.8C518.3 361.7 545.7 370.3 573 363.7C600.3 357 627.7 335 654.8 335.5C682 336 709 359 736.2 372.8C763.3 386.7 790.7 391.3 818 382.2C845.3 373 872.7 350 886.3 338.5L900 327L900 601L886.3 601C872.7 601 845.3 601 818 601C790.7 601 763.3 601 736.2 601C709 601 682 601 654.8 601C627.7 601 600.3 601 573 601C545.7 601 518.3 601 491 601C463.7 601 436.3 601 409 601C381.7 601 354.3 601 327 601C299.7 601 272.3 601 245.2 601C218 601 191 601 163.8 601C136.7 601 109.3 601 82 601C54.7 601 27.3 601 13.7 601L0 601Z" fill="#6b5feb"></path><path d="M0 462L13.7 462.2C27.3 462.3 54.7 462.7 82 459.7C109.3 456.7 136.7 450.3 163.8 445C191 439.7 218 435.3 245.2 440.2C272.3 445 299.7 459 327 463.2C354.3 467.3 381.7 461.7 409 458.2C436.3 454.7 463.7 453.3 491 456.7C518.3 460 545.7 468 573 459.2C600.3 450.3 627.7 424.7 654.8 423.8C682 423 709 447 736.2 446.5C763.3 446 790.7 421 818 413.5C845.3 406 872.7 416 886.3 421L900 426L900 601L886.3 601C872.7 601 845.3 601 818 601C790.7 601 763.3 601 736.2 601C709 601 682 601 654.8 601C627.7 601 600.3 601 573 601C545.7 601 518.3 601 491 601C463.7 601 436.3 601 409 601C381.7 601 354.3 601 327 601C299.7 601 272.3 601 245.2 601C218 601 191 601 163.8 601C136.7 601 109.3 601 82 601C54.7 601 27.3 601 13.7 601L0 601Z" fill="#6f46da"></path><path d="M0 517L13.7 513.3C27.3 509.7 54.7 502.3 82 503.7C109.3 505 136.7 515 163.8 512C191 509 218 493 245.2 485.8C272.3 478.7 299.7 480.3 327 489.8C354.3 499.3 381.7 516.7 409 522.8C436.3 529 463.7 524 491 520.8C518.3 517.7 545.7 516.3 573 511C600.3 505.7 627.7 496.3 654.8 499C682 501.7 709 516.3 736.2 517.8C763.3 519.3 790.7 507.7 818 499.2C845.3 490.7 872.7 485.3 886.3 482.7L900 480L900 601L886.3 601C872.7 601 845.3 601 818 601C790.7 601 763.3 601 736.2 601C709 601 682 601 654.8 601C627.7 601 600.3 601 573 601C545.7 601 518.3 601 491 601C463.7 601 436.3 601 409 601C381.7 601 354.3 601 327 601C299.7 601 272.3 601 245.2 601C218 601 191 601 163.8 601C136.7 601 109.3 601 82 601C54.7 601 27.3 601 13.7 601L0 601Z" fill="#7324c7"></path></svg>